<?xml version="1.0" encoding="UTF-8" standalone="no"?>
<svg
   xmlns:dc="http://purl.org/dc/elements/1.1/"
   xmlns:cc="http://creativecommons.org/ns#"
   xmlns:rdf="http://www.w3.org/1999/02/22-rdf-syntax-ns#"
   xmlns:svg="http://www.w3.org/2000/svg"
   xmlns="http://www.w3.org/2000/svg"
   viewBox="0 0 139.5 157.5"
   height="157.5"
   width="139.5"
   version="1.1"
   id="svg4241">
  <metadata
     id="metadata4247">
    <rdf:RDF>
      <cc:Work
         rdf:about="">
        <dc:format>image/svg+xml</dc:format>
        <dc:type
           rdf:resource="http://purl.org/dc/dcmitype/StillImage" />
        <dc:title></dc:title>
      </cc:Work>
    </rdf:RDF>
  </metadata>
  <defs
     id="defs4245" />
  <g
     transform="translate(2.0000003,-0.49999996)"
     id="g4292">
    <path
       id="path4298"
       d="m 34.533894,145.64047 c -6.013877,-1.31683 -10.629131,-3.82236 -14.890568,-8.0838 -3.679963,-3.67996 -5.92814,-7.43786 -7.553473,-12.62588 L 11.25,122.25 l 0,-43.65 0,-43.65 0.839853,-2.680788 c 1.625333,-5.188019 3.87351,-8.945924 7.553473,-12.625886 3.679962,-3.679963 7.437867,-5.92814 12.625886,-7.553473 L 34.95,11.25 l 33.45,0 c 33.38481,0 33.45475,0.0013 35.88974,0.651641 11.33763,3.028212 19.98041,11.670987 23.00862,23.008615 L 127.95,37.35 l 0,41.25 0,41.25 -0.65164,2.43974 c -1.50948,5.65148 -4.22514,10.38265 -8.34836,14.54433 -4.01601,4.05348 -8.77543,6.82974 -14.49737,8.4566 -2.29744,0.65321 -2.37664,0.65481 -35.15263,0.71202 -27.187161,0.0475 -33.180309,-0.015 -34.766106,-0.36222 z M 98.55,136.80358 c 5.45704,-0.50245 10.01788,-2.62379 13.82384,-6.42975 3.80595,-3.80595 5.92729,-8.36679 6.42974,-13.82383 0.36013,-3.91141 0.36013,-71.988591 0,-75.9 -0.8197,-8.90271 -6.41849,-16.088798 -15.01433,-19.271019 L 101.55,20.55 69.525087,20.468427 c -35.893221,-0.09143 -33.98754,-0.195266 -38.437785,2.094454 -4.813839,2.476795 -9.02635,7.778594 -10.226835,12.871331 -0.680284,2.885925 -0.680284,83.445648 0,86.331578 1.197032,5.07809 5.419882,10.40253 10.189533,12.84762 2.754666,1.41214 4.248882,1.86464 7.2,2.18042 3.057831,0.32719 56.757969,0.33587 60.3,0.01 z m -59.954853,-9.01827 c -3.536091,-0.59333 -7.249473,-3.64315 -8.644711,-7.09994 L 29.25,118.95 l 0,-22.5 0,-22.5 0.69618,-1.723998 c 0.971343,-2.405403 3.224523,-4.776909 5.694705,-5.993769 L 37.63479,65.25 45.875169,65.15698 c 4.532208,-0.05116 8.549424,-0.01545 8.927148,0.07934 C 56.381346,65.632635 56.4,65.844534 56.4,83.385102 56.4,102.68174 55.934991,100.8 60.703503,100.8 c 2.773767,0 3.164223,-0.0671 3.675,-0.63131 0.545253,-0.602326 0.575286,-1.390552 0.654012,-17.163667 0.08209,-16.446849 0.08585,-16.535901 0.727296,-17.218686 C 66.397446,65.107605 66.485655,65.1 73.722018,65.1 c 7.181334,0 8.249592,-0.123132 8.848389,-1.01991 0.121224,-0.181551 0.222474,-1.71384 0.225,-3.40509 C 82.802507,55.896336 85.42776,56.4 60.51303,56.4 37.301454,56.4 37.305501,56.400285 34.436256,54.559095 30.457536,52.005957 28.888654,48.154566 29.16971,41.630451 29.368708,37.01115 30.033141,35.311989 32.672565,32.672565 34.106766,31.238364 35.14449,30.496629 36.45,29.972564 L 38.25,29.25 58.95,29.15631 c 22.269948,-0.100792 25.666815,0.04639 29.990922,1.299467 4.731363,1.371096 8.229141,3.424185 11.966198,7.023795 6.72324,6.475974 9.59033,14.325258 9.10261,24.920424 -0.2632,5.717892 -1.17065,9.268929 -3.5251,13.794489 L 105.23314,78.6 l 1.25149,2.405511 c 2.3809,4.576398 3.26995,8.096961 3.52847,13.972458 0.44609,10.138681 -2.30883,17.990361 -8.50664,24.244431 -4.869845,4.91404 -10.84541,7.76951 -17.906774,8.5569 -3.378564,0.37673 -42.763803,0.382 -45.004539,0.006 z M 86.97036,117.77026 c 6.304983,-2.20077 11.016591,-7.05398 12.980169,-13.37026 0.628731,-2.02246 0.698331,-2.81126 0.688191,-7.8 -0.0107,-5.283294 -0.0515,-5.665194 -0.847092,-7.94712 -0.996765,-2.858751 -2.305749,-5.09001 -4.369935,-7.448871 -1.993464,-2.278041 -2.004501,-2.964522 -0.08181,-5.087625 1.957746,-2.161812 3.452439,-4.703226 4.451745,-7.569264 0.795642,-2.281926 0.836352,-2.663826 0.847092,-7.94712 0.0101,-4.988736 -0.0595,-5.777541 -0.688191,-7.8 C 98.138895,46.972473 93.835089,42.199746 88.388928,39.978705 84.724995,38.484486 83.627169,38.421717 60.961365,38.410467 L 39.872727,38.4 39.136365,39.136365 C 38.45316,39.81957 38.40069,40.084869 38.40954,42.811365 38.4246,47.450451 35.61987,46.924692 61.287753,47.1 L 83.25,47.25 l 1.723998,0.69618 c 2.40444,0.970953 4.777176,3.224757 5.991294,5.690976 0.942228,1.91394 0.983967,2.152908 1.089609,6.238371 0.08647,3.343935 0.0021,4.623492 -0.396918,6.011334 -1.023783,3.561927 -3.531432,6.304041 -6.982356,7.635207 -1.409844,0.543834 -2.533311,0.691803 -6.139272,0.80859 l -4.413645,0.142947 -0.08635,13.688199 c -0.08493,13.462956 -0.09743,13.711976 -0.75933,15.133346 -1.003395,2.15469 -3.653073,4.77297 -5.863545,5.79405 -1.80837,0.83534 -2.005431,0.86062 -6.66348,0.85466 -4.300587,-0.005 -4.979373,-0.0779 -6.523998,-0.69618 -2.403807,-0.96213 -4.773546,-3.21142 -5.993769,-5.68911 L 47.25,101.56412 47.160783,87.982059 47.071563,74.4 l -3.86877,0 c -3.657792,0 -3.894237,0.03636 -4.335783,0.666753 C 38.455233,75.654648 38.4,78.193125 38.4,96.530388 l 0,20.796882 0.750621,0.75062 0.750621,0.75062 22.274379,-0.0892 L 84.45,118.65 l 2.52036,-0.87974 z"
       style="fill:#f0aa98" />
    <path
       id="path4296"
       d="M 35.054754,145.63533 C 23.642159,143.54737 14.779199,135.07296 11.7698,123.37119 11.288621,121.50017 11.25,118.17368 11.25,78.6 l 0,-42.75 0.651641,-2.439744 c 1.487171,-5.567971 3.941005,-9.904515 7.772552,-13.736063 3.831548,-3.831547 8.168092,-6.285381 13.736063,-7.772552 C 35.843982,11.251608 35.931042,11.25 68.7,11.25 l 32.85,0 2.99296,0.824958 c 11.19968,3.087007 19.49155,11.401108 22.60268,22.663299 L 127.95,37.65 l 0,40.95 0,40.95 -0.80436,2.91174 c -2.52974,9.15757 -8.32577,16.26267 -16.60268,20.35249 -1.65388,0.81722 -4.35388,1.85586 -6,2.30808 l -2.99296,0.82224 -32.1,0.0554 c -26.399196,0.0455 -32.507625,-0.0192 -34.395246,-0.36457 z M 102.75,136.24492 c 4.10644,-1.37822 6.68632,-2.9572 9.61202,-5.8829 2.99444,-2.99444 4.60595,-5.66758 5.88507,-9.76202 l 0.70291,-2.25 0,-39.75 0,-39.75 -0.70291,-2.25 c -1.27912,-4.094445 -2.89063,-6.767584 -5.88507,-9.76202 -2.9258,-2.925798 -5.50605,-4.504964 -9.61202,-5.882758 l -2.1,-0.704672 -30.9,-0.08597 C 35.101971,20.06818 36.157722,20.011708 31.65,22.202542 27.164821,24.382421 24.125373,27.463018 22.032746,31.95 20.023516,36.258162 20.1,34.412109 20.1,78.6 c 0,44.18399 -0.07639,42.33877 1.931299,46.65 2.047259,4.3962 5.205852,7.59633 9.618701,9.7452 4.408095,2.14655 2.999733,2.07166 37.8,2.0099 l 31.2,-0.0554 2.1,-0.7048 z m -65.464188,-8.88015 c -2.968542,-0.92774 -5.337861,-2.96355 -6.9003,-5.929 L 29.55,119.85 l 0,-23.25 0,-23.25 0.787617,-1.65 c 1.215549,-2.54649 2.696412,-4.035696 5.286831,-5.316621 L 37.916484,65.25 46.191552,65.15437 c 8.076123,-0.09333 8.294703,-0.08019 9.091758,0.546774 l 0.81669,0.642408 0,16.461498 0,16.461495 0.713832,0.829875 c 0.629949,0.73236 0.964629,0.84405 2.848089,0.95048 2.712543,0.15327 4.084098,-0.10671 4.839264,-0.91729 C 65.084517,99.503484 65.1,99.061329 65.1,83.029794 l 0,-16.457067 0.736365,-0.736362 0.736362,-0.736365 7.480401,0 c 9.402711,0 8.896872,0.245343 8.896872,-4.315161 0,-2.896668 -0.05855,-3.226734 -0.683157,-3.851505 L 81.583689,56.25 59.466843,56.1 37.35,55.95 35.628171,55.104486 C 33.434442,54.027243 31.472757,52.065558 30.395514,49.871829 29.563249,48.176982 29.55,48.065382 29.55,42.75 l 0,-5.4 1.017132,-1.875627 c 1.235541,-2.278383 3.105123,-4.059678 5.380323,-5.12625 L 37.65,29.55 l 23.85,0 c 21.78486,0 24.028029,0.04571 25.906029,0.52788 10.699119,2.746962 18.744261,10.636926 21.639521,21.22212 0.68448,2.502477 0.98122,12.336276 0.47141,15.622095 -0.46767,3.014178 -1.90746,7.200102 -3.32022,9.652905 l -1.16635,2.025 1.16635,2.025 c 1.41276,2.452803 2.85255,6.638727 3.32022,9.652905 0.50981,3.285819 0.21307,13.119615 -0.47141,15.622095 -3.06363,11.20079 -12.036398,19.51306 -23.156924,21.45231 -3.55887,0.62062 -46.621542,0.63166 -48.602814,0.0125 z m 48.284256,-9.14433 c 5.370696,-1.37359 9.988275,-4.87833 12.75189,-9.67868 0.350913,-0.60953 1.008747,-2.09453 1.461849,-3.3 0.754833,-2.00821 0.834373,-2.6253 0.949733,-7.368539 0.0997,-4.100028 0.0213,-5.646702 -0.37675,-7.436064 -0.680065,-3.056778 -2.465284,-6.50466 -4.64836,-8.977608 -2.348241,-2.660046 -2.348241,-3.059052 0,-5.719098 2.183076,-2.472948 3.968295,-5.92083 4.64836,-8.977608 0.3981,-1.789362 0.47646,-3.336036 0.37675,-7.436064 -0.11536,-4.743237 -0.1949,-5.360334 -0.949733,-7.368543 C 98.766834,49.252608 98.070162,48.016095 96.370494,45.9 93.67707,42.546681 89.814237,40.065033 85.617156,38.9916 83.419371,38.429502 82.21905,38.4 61.546347,38.4 l -21.757677,0 -0.694335,0.652293 C 38.456442,39.651564 38.4,39.953694 38.4,42.769059 c 0,2.569893 0.09253,3.178773 0.57333,3.772707 L 39.54666,47.25 61.84833,47.4 84.15,47.55 l 1.5,0.798345 c 4.539504,2.416059 6.45,6.09363 6.45,12.415806 0,6.191493 -2.039682,10.058568 -6.476025,12.278034 -1.705764,0.85338 -1.96089,0.891954 -6.634986,1.003203 L 74.127978,74.161086 74.038989,87.855543 73.95,101.55 l -0.798123,1.70254 c -1.066572,2.2752 -2.847867,4.14479 -5.12625,5.38033 L 66.15,109.65 l -5.55,0 c -5.433846,0 -5.581392,-0.0167 -7.05,-0.79835 -2.521305,-1.34191 -3.935331,-2.78601 -5.166621,-5.27653 L 47.25,101.28265 47.155743,87.691326 47.061489,74.1 l -3.540288,0 c -3.127353,0 -3.632484,0.07252 -4.330743,0.621774 L 38.4,75.343548 l 0,21.033891 0,21.033891 0.652293,0.69434 0.652296,0.69433 21.799716,0 c 20.561409,0 21.928437,-0.0329 24.065763,-0.57956 z"
       style="fill:#ec8d75" />
    <path
       id="path4294"
       d="M 35.83788,145.6657 C 23.247729,143.70872 13.470959,133.86507 11.538415,121.2 c -0.646682,-4.23807 -0.646682,-80.961927 0,-85.2 C 13.534727,22.917027 23.737073,13.025128 36.9,11.410143 c 2.055684,-0.252216 11.420241,-0.31971 33.6,-0.242168 30.63113,0.107089 30.75969,0.110076 33.25599,0.772627 12.06317,3.201725 20.2888,11.425706 23.50519,23.500474 l 0.66831,2.508924 0.10386,38.7 c 0.0757,28.19438 0.009,39.47312 -0.24562,41.54799 -1.78726,14.56472 -12.90784,25.78115 -27.35713,27.59294 -3.761498,0.47165 -61.472534,0.35977 -64.59272,-0.12523 z M 103.05,136.2454 c 7.61656,-2.55554 12.83226,-7.82587 15.1968,-15.35597 l 0.7032,-2.23943 0,-40.05 0,-40.05 -0.7032,-2.239428 C 115.85778,28.702501 110.47798,23.318772 102.9,20.952559 L 100.65,20.25 l -32.25,0 -32.25,0 -2.200476,0.803822 C 30.706875,22.238344 28.62022,23.579779 26.1,26.1 c -2.520221,2.52022 -3.861656,4.606875 -5.046178,7.849524 L 20.25,36.15 l 0,42.3 0,42.3 0.84387,2.45768 c 1.525399,4.44257 4.281992,7.99358 8.232665,10.60524 1.937929,1.28109 5.478529,2.72287 7.573465,3.08399 0.4125,0.0711 14.9925,0.11215 32.4,0.0912 l 31.65,-0.0381 2.1,-0.7046 z M 37.5,127.32193 c -3.543888,-0.94198 -6.675567,-4.10129 -7.633308,-7.70065 C 29.420108,117.94294 29.378114,115.47657 29.459385,95.7 L 29.55,73.65 30.420282,71.765391 C 31.53714,69.346818 34.104258,66.90342 36.450879,66.025437 38.001081,65.445432 38.741532,65.4 46.644243,65.4 c 8.466033,0 8.524788,0.0043 8.988747,0.666753 0.408525,0.583251 0.468204,2.715381 0.47655,17.025 0.0072,12.385956 0.09829,16.473834 0.375,16.834245 0.698367,0.909592 1.691439,1.174002 4.409373,1.174002 2.502087,0 2.795664,-0.0623 3.469722,-0.73636 L 65.1,99.627273 l 0,-16.19952 c 0,-17.008887 0.04349,-17.595156 1.326432,-17.88114 0.342963,-0.07645 3.909225,-0.174465 7.925028,-0.217806 L 81.65292,65.25 82.37646,64.408272 C 83.034216,63.643071 83.1,63.300444 83.1,60.63984 c 0,-2.977227 0.01749,-2.918712 -1.286688,-4.30725 -0.03482,-0.03707 -9.988851,-0.138324 -22.120065,-0.225 L 37.636494,55.95 35.656473,54.975021 c -2.35356,-1.158915 -4.198614,-3.047067 -5.298705,-5.422476 -0.708455,-1.529763 -0.800417,-2.135118 -0.906157,-5.964984 -0.102284,-3.7047 -0.0349,-4.529049 0.514944,-6.3 1.153243,-3.714357 4.017946,-6.488028 7.671475,-7.427691 2.563224,-0.659245 43.215651,-0.681903 47.563209,-0.02651 9.401514,1.417276 17.384941,7.297258 21.610481,15.916639 2.10226,4.288242 2.70886,7.025571 2.90357,13.102602 0.24372,7.606635 -0.64837,12.148158 -3.39281,17.272398 l -1.32556,2.475 1.32556,2.475 c 2.74444,5.12424 3.63653,9.665763 3.39281,17.272398 -0.19471,6.077033 -0.80131,8.814363 -2.90357,13.102603 -4.30627,8.78405 -12.711473,14.841 -22.255439,16.03771 -1.531941,0.19209 -10.749606,0.30469 -23.948412,0.29255 C 42.781296,127.76385 38.870772,127.6863 37.5,127.32193 Z M 87,117.98294 c 4.914579,-1.68118 9.417372,-5.54695 11.627991,-9.98294 1.621709,-3.25423 2.146449,-5.34542 2.371289,-9.45 0.40647,-7.420251 -1.256216,-12.769608 -5.424281,-17.451513 -1.934541,-2.173032 -1.934541,-2.823942 0,-4.996974 4.168065,-4.681905 5.830751,-10.031262 5.424281,-17.451513 -0.22465,-4.101003 -0.74889,-6.192762 -2.368388,-9.45 -0.967182,-1.945254 -1.80483,-3.083598 -3.532065,-4.8 -2.547876,-2.531895 -4.6299,-3.870552 -7.848447,-5.046237 L 85.05,38.55 62.36931,38.466033 c -22.072227,-0.08171 -22.699989,-0.06834 -23.4,0.498495 -0.676902,0.548121 -0.71931,0.769248 -0.71931,3.750633 0,2.896617 0.05855,3.226743 0.683127,3.851505 L 39.616254,47.25 61.733127,47.4 83.85,47.55 l 1.683537,0.827172 c 2.010126,0.987633 4.539579,3.558504 5.45823,5.5476 C 91.592244,55.224948 91.65,55.823808 91.65,60.75 c 0,5.327787 -0.01116,5.421207 -0.835512,6.98577 -1.645299,3.122718 -4.036647,5.098527 -7.185291,5.936715 -0.970251,0.258288 -3.105501,0.421767 -5.537412,0.423954 L 74.133567,74.1 74.041785,87.675 73.95,101.25 l -0.95232,2.01021 c -1.168809,2.4672 -3.173052,4.52672 -5.43873,5.58874 C 65.911017,109.6214 65.662554,109.65 60.6,109.65 c -5.123553,0 -5.290548,-0.0199 -6.933537,-0.82717 -2.010126,-0.98763 -4.539579,-3.55851 -5.45823,-5.5476 C 47.565024,101.88253 47.548029,101.5333 47.46366,87.975 L 47.37732,74.1 l -3.88866,0 c -3.471963,0 -3.952137,0.06348 -4.481028,0.592368 -0.325803,0.325803 -0.667728,0.899553 -0.759828,1.275 -0.0921,0.375447 -0.129285,9.908352 -0.08263,21.184233 L 38.25,117.6532 l 0.717183,0.58065 c 0.697137,0.56441 1.351215,0.57834 23.4,0.49839 22.552053,-0.0818 22.694058,-0.0861 24.632817,-0.7493 z"
       style="fill:#e34e28" />
  </g>
</svg>
